<svg xmlns="http://www.w3.org/2000/svg" viewBox="0 0 164.47 199.43">
   <defs>
      <style>.cls-1{fill:#fff;}
      </style>
      <filter id="f1" x="0" y="0">
      <feBlend mode="difference" in="SourceGraphic" in2="SourceGraphic" />
    </filter>
   </defs>

   <title>Logo</title>
   
   <g id="Layer_2" data-name="Layer 2">
      <g id="Layer_1-2" data-name="Layer 1">
         <path class="cls-1" d="M38.39,98.39h3.89S40.8,98.29,38.39,98.39Zm45,0h0v0Zm32.28-13.15a25.52,25.52,0,0,0,8,7.34A35.63,35.63,0,0,1,115.71,85.24Z"/>
         <path class="cls-1" d="M83.43,98.39h0v0ZM0,127.06v.19A50.41,50.41,0,0,1,4.1,116.7,37.29,37.29,0,0,0,0,127.06Zm83.4,43.73a1.05,1.05,0,0,0,.06.24v-.47C83.45,170.64,83.41,170.71,83.4,170.79Z"/>
         <path class="cls-1" d="M164.47,176.33c0,14.45-11.12,23.1-24.82,23.1,12.11-18.91,3.46-27-28.6-44.9C90,142.83,80.43,133.59,80.43,118.14c0-.22,0-.43,0-.65-3.28,9.81-9.45,19.4-19.66,28.82L0,199.43C0,183,5.92,166.94,22.68,151.5l60.58-53h0l.15-.14h0v0l0,0H53.54C62.26,95.58,67.33,90,61.71,77.3L46.09,42.73C36.54,21.22,43.72,8.85,48.49,0l35,77.3C89.39,90,96.55,95.58,107.38,98.39c0,0-10,.44-10.13,11.55.56,12.9,13.78,21.19,29.68,30.16C148.17,152.08,164.47,158.43,164.47,176.33Z"/>
         <path class="cls-1" d="M83.33,170.56V171a2.17,2.17,0,0,0,.07-.24C83.38,170.71,83.35,170.64,83.33,170.56Z"/><path class="cls-1" d="M157.25,98.36V120c-4.33-13-8.67-17.33-21.64-21.66a45.51,45.51,0,0,1-11.81-5.74s0,0-.07,0a35.63,35.63,0,0,1-8-7.34s0,0,0,0a42.73,42.73,0,0,1-4.32-7.78l0-.11L95.71,42.73C86.16,21.22,93.32,8.85,98.11,0l35,77.3C139,89.91,146.39,95.88,157.25,98.36Z"/>
         <path class="cls-1" d="M112.2,199.43H54.58C70.31,195.16,79,186.61,83.33,171a2.17,2.17,0,0,0,.07-.24,1.05,1.05,0,0,0,.06.24C87.83,186.61,96.47,195.16,112.2,199.43Z"/>
         <path class="cls-1" d="M99.1,98.38h0v0Z"/>
         <path class="cls-1" d="M115.68,85.19a27.3,27.3,0,0,1-4.32-7.78A42.73,42.73,0,0,0,115.68,85.19Z"/>
         <path class="cls-1" d="M42.31,98.39h0s-1.48-.1-3.89,0c-7.71.32-25,2.81-34,17.83a3.72,3.72,0,0,0-.27.48A37.29,37.29,0,0,0,0,127.06V98.36H.23c12.57-4.2,16.79-8.44,21-21.06C25.44,90,29.66,94.17,42.31,98.39Z"/>
         <polygon class="cls-1" points="83.43 98.39 83.28 98.53 83.31 98.39 83.43 98.39"/>
         <path class="cls-1" d="M83.46,98.36v0h0Z"/>
         <path class="cls-1" d="M99.1,98.38h0v0Z"/>
      </g>
   </g>
</svg>