 <svg xmlns="http://www.w3.org/2000/svg" viewBox="0 0 425.54 309.29">
   <defs>
      <style>.cls-1,.cls-2{fill:#000;}.cls-2{font-size:33px;font-family:AlverataSb, Alverata;letter-spacing:0.2em;}</style>
   </defs>
   <g id="Layer_2" data-name="Layer 2">
      <g id="Design">
         <g id="Layer_2-2" data-name="Layer 2">
            <g id="Layer_1-2" data-name="Layer 1-2">
               <path class="cls-1" d="M163.23,111.17h4.39S166,111.06,163.23,111.17Zm87.32-14.85a28.68,28.68,0,0,0,9,8.29,40.31,40.31,0,0,1-9-8.29Z"/>
               <path class="cls-1" d="M119.85,143.57v.21a56.84,56.84,0,0,1,4.63-11.92A42.28,42.28,0,0,0,119.85,143.57ZM214.08,193a2.13,2.13,0,0,0,.07.27v-.53A2.5,2.5,0,0,1,214.08,193Z"/>
               <path class="cls-1" d="M305.69,199.24c0,16.33-12.57,26.1-28.05,26.1,13.69-21.36,3.91-30.51-32.31-50.73-23.79-13.22-34.6-23.66-34.6-41.12v-.73c-3.71,11.08-10.68,21.92-22.22,32.56l-68.66,60c0-18.56,6.69-36.71,25.62-54.15l68.46-59.89h0l.17-.16H180.34c9.86-3.14,15.59-9.45,9.24-23.8L171.93,48.28C161.14,24,169.25,10,174.64,0l39.55,87.34c6.66,14.35,14.75,20.66,27,23.83,0,0-11.3.5-11.45,13.06.64,14.57,15.57,23.94,33.54,34.07C287.27,171.84,305.69,179,305.69,199.24Z"/>
               <path class="cls-1" d="M214,192.72v.5a2.68,2.68,0,0,0,.07-.27A2.19,2.19,0,0,1,214,192.72Z"/>
               <path class="cls-1" d="M297.53,111.14v24.45c-4.89-14.69-9.8-19.58-24.45-24.47a51.43,51.43,0,0,1-13.35-6.49h-.08a40.2,40.2,0,0,1-9-8.29h0a48.42,48.42,0,0,1-4.89-8.79v-.13L228,48.28C217.2,24,225.29,10,230.71,0l39.54,87.34C276.91,101.59,285.26,108.34,297.53,111.14Z"/>
               <path class="cls-1" d="M246.63,225.34H181.52c17.77-4.82,27.59-14.48,32.49-32.12a2.68,2.68,0,0,0,.07-.27,2.68,2.68,0,0,0,.07.27C219.09,210.86,228.85,220.52,246.63,225.34Z"/>
               <path class="cls-1" d="M250.56,96.26a30.56,30.56,0,0,1-4.88-8.79A47.78,47.78,0,0,0,250.56,96.26Z"/>
               <path class="cls-1" d="M167.66,111.17h0s-1.68-.11-4.4,0c-8.71.37-28.25,3.18-38.42,20.15a5.7,5.7,0,0,0-.3.54,42,42,0,0,0-4.69,11.71V111.14h.26c14.2-4.75,19-9.54,23.73-23.8C148.59,101.69,153.36,106.41,167.66,111.17Z"/>
               <polygon class="cls-1" points="214.12 111.17 213.95 111.33 213.98 111.17 214.12 111.17"/>
            </g>
         </g>
         <text class="cls-2" transform="translate(34.17 300.31) scale(1 0.87)">GRAPHIC DESIGN</text>
         <path class="cls-1" d="M425.54,289.12c-3.56-.55-10.85,6.4-20.19.78C408.9,290.44,416.2,283.49,425.54,289.12Z"/>
         <path class="cls-1" d="M20.19,289.9c-9.34,5.62-16.63-1.33-20.19-.78C9.34,283.49,16.63,290.44,20.19,289.9Z"/>
      </g>
   </g>
</svg>